<svg width="25" height="25" xmlns="http://www.w3.org/2000/svg">
 <!-- Created with Method Draw - http://github.com/duopixel/Method-Draw/ -->

 <g>
  <title>background</title>
  <rect fill="#fff" id="canvas_background" height="27" width="27" y="-1" x="-1"/>
  <g display="none" overflow="visible" y="0" x="0" height="100%" width="100%" id="canvasGrid">
   <rect fill="url(#gridpattern)" stroke-width="0" y="0" x="0" height="100%" width="100%"/>
  </g>
 </g>
 <g>
  <title>Layer 1</title>
  <g stroke="null" id="svg_12">
   <g stroke="null" transform="matrix(0.06395359777810075,0,0,0.0643261960780049,-90.07226789684788,-80.5954927759704) " id="svg_5">
    <path stroke="null" id="svg_6" d="m1797.805035,1583.643181c0,31.312 -25.383,56.693 -56.693,56.693l-276.018,0c-31.311,0 -56.693,-25.381 -56.693,-56.693l0,-274.031c0,-31.311 25.382,-56.693 56.693,-56.693l276.018,0c31.311,0 56.693,25.382 56.693,56.693l0,274.031z" fill="#FAAB62"/>
    <path stroke="null" id="svg_7" d="m1795.805035,1582.236181c0,30.989 -25.122,56.11 -56.111,56.11l-273.183,0c-30.989,0 -56.11,-25.121 -56.11,-56.11l0,-271.217c0,-30.989 25.122,-56.11 56.11,-56.11l273.183,0c30.989,0 56.111,25.122 56.111,56.11l0,271.217z" fill="#F7931E"/>
    <path stroke="null" id="svg_8" d="m1602.886035,1310.820181c-38.593,0 -69.878,31.286 -69.878,69.878c0,38.593 31.285,69.881 69.878,69.881s69.878,-31.288 69.878,-69.881c0,-38.592 -31.285,-69.878 -69.878,-69.878zm0,98.766c-15.953,0 -28.886,-12.934 -28.886,-28.887s12.933,-28.886 28.886,-28.886s28.886,12.933 28.886,28.886s-12.933,28.887 -28.886,28.887z" fill="#FFFFFF"/>
    <g stroke="null" id="svg_9">
     <path stroke="null" id="svg_10" d="m1627.556035,1506.181181c27.975,-5.699 44.739,-18.947 45.626,-19.658c8.186,-6.565 9.501,-18.523 2.936,-26.71c-6.564,-8.186 -18.521,-9.501 -26.709,-2.937c-0.173,0.14 -18.053,13.856 -47.472,13.876c-29.418,-0.02 -47.676,-13.736 -47.849,-13.876c-8.188,-6.564 -20.145,-5.249 -26.709,2.937c-6.565,8.187 -5.25,20.145 2.936,26.71c0.899,0.721 18.355,14.314 47.114,19.879l-40.081,41.888c-7.284,7.554 -7.065,19.582 0.489,26.866c3.687,3.555 8.439,5.322 13.187,5.322c4.978,0 9.951,-1.945 13.679,-5.812l37.235,-39.665l40.996,39.922c7.428,7.416 19.456,7.404 26.87,-0.021c7.414,-7.426 7.405,-19.456 -0.021,-26.87l-42.227,-41.851z" fill="#FFFFFF"/>
     <path stroke="null" id="svg_11" d="m1601.937035,1470.751181c-0.047,0 0.046,0.001 0,0.002c-0.046,-0.001 0.047,-0.002 0,-0.002z" fill="#FFFFFF"/>
    </g>
   </g>
  </g>
 </g>
</svg>